<?xml version="1.0" encoding="UTF-8"?>
<svg id="Alignment_Guidelines" xmlns="http://www.w3.org/2000/svg" xmlns:xlink="http://www.w3.org/1999/xlink" version="1.1" viewBox="0 0 455.8 216.8">
  <!-- Generator: Adobe Illustrator 29.6.1, SVG Export Plug-In . SVG Version: 2.1.1 Build 9)  -->
  <defs>
    <style>
      .st0, .st1 {
        fill: none;
      }

      .st1 {
        stroke: #000;
      }

      .st2 {
        clip-path: url(#clippath);
      }
    </style>
    <clipPath id="clippath">
      <rect class="st0" x="49.3" y="24.7" width="381.8" height="167.3"/>
    </clipPath>
  </defs>
  <g class="st2">
    <path d="M211.6,134.8h-7.5c0-3,1.4-4.7,3.8-4.7s3.8,1.7,3.7,4.7M221.5,137.8c0-8.3-4.8-13.4-13.4-13.4s-13.7,5.3-13.7,13.6,5.6,13.2,14.5,13.2,10.1-2.5,12.3-6.5l-7.4-3.4c-1.2,1.9-2.8,2.9-4.8,2.9s-4.8-1.6-4.9-4.2h17.4v-2.1ZM179.8,151.2c6.9,0,12.2-3.6,13.1-9.1l-9.6-2.2c-.3,2.5-1.6,4-3.6,4s-3.9-2.3-3.9-6.4,1.5-5.8,3.9-5.8,3.3,1.3,3.7,3.8l9.5-2.1c-1.1-5.7-5.9-8.9-13-8.9s-14.5,5-14.5,13.4,5.8,13.4,14.4,13.4M154.6,132.1v-7h-9.7v25.5h10.3v-10.1c0-2.3.6-4,1.8-5,1-.9,2.6-1.3,4.6-1.3s1.5,0,2.2.1v-9.7h-.3c-4.6,0-7.5,2.5-8.9,7.6M123.1,151.2c3.8,0,6.7-1.9,8-5.2v4.5h9.8v-25.5h-10.3v15c0,2.1-1.1,3.5-2.9,3.5s-2.8-1.3-2.8-3.8v-14.7h-10.3v16.7c0,6,2.7,9.4,8.5,9.4M98,144.5c-2.4,0-3.8-2.1-3.8-6.8s1.4-6.6,3.8-6.6,3.8,1.9,3.8,6.6-1.4,6.8-3.8,6.8M98,151.2c7.7,0,14-4.4,14-13.5s-6.3-13.3-14-13.3-14,4.2-14,13.3,6.3,13.5,14,13.5M65.9,151.4c9.7,0,15.7-4.6,15.7-12.1s-3-9.4-9.9-11l-5.2-1.2c-3.7-.8-4.9-1.6-4.9-3.3s1.7-2.6,4.5-2.6,7.2,1.7,9.7,4.4l6.1-6.8c-3.6-3.6-8.9-5.5-15-5.5-9.2,0-14.9,4.2-14.9,11.1s3.5,9.8,10.5,11.4l4.6,1c3.4.7,4.4,1.5,4.4,3.3s-2,3-5.2,3-7.3-1.7-9.8-5l-7.2,6.6c3.5,4.2,9.6,6.6,16.6,6.6"/>
    <path d="M380.4,136.1h-16.4c.1-5.9,3.3-9.6,8.4-9.6s8,3.4,8,9.4v.3ZM383,136.6c0-8-3.8-12.2-10.6-12.2s-11,5.1-11,13.4,4.1,13.4,11.3,13.4,8.8-2.9,10.1-7.9l-2.2-.7c-1,4-3.8,6.3-7.8,6.3-5.5,0-8.8-3.9-8.8-10.7h19v-1.6ZM347.5,151.2c5.6,0,9.2-3.3,10.1-9l-2.5-.3c-.7,4.5-3.4,7.1-7.6,7.1s-8.6-4.1-8.6-11.2,3.2-11.1,8.5-11.1,7.1,2.5,7.7,7.1l2.6-.3c-.6-5.7-4.4-9.1-10.1-9.1s-11.3,5-11.3,13.4,4.3,13.4,11.3,13.4M328.1,150.6h2.6v-25.5h-2.6v25.5ZM328,120.7h2.8v-5.8h-2.8v5.8ZM322.6,125.1h-6.9v-4.2c0-3.6,1.3-5.4,4.5-5.4s1.6.2,2.4.3v-2.2c-.8-.2-1.6-.3-2.7-.3-4.3,0-6.8,2.8-6.8,7.2v4.5h-4.8v2.1h4.8v23.4h2.5v-23.4h6.9v-2.1ZM308.5,125.1h-6.9v-4.2c0-3.6,1.3-5.4,4.5-5.4s1.6.2,2.4.3v-2.2c-.8-.2-1.6-.3-2.7-.3-4.3,0-6.8,2.8-6.8,7.2v4.5h-4.8v2.1h4.8v23.4h2.6v-23.4h6.9v-2.1ZM274.8,149c-8.1,0-13.2-6.7-13.2-16.6s5-16.6,13.2-16.6,13.1,6.5,13.1,16.6-4.9,16.6-13.1,16.6M274.8,151.4c9.7,0,16.1-7.4,16.1-19s-6.4-19-16.1-19-16.1,7.3-16.1,19,6.3,19,16.1,19"/>
    <path d="M397.3,71.1v25.5h2.6v-14.8c0-5.5,2.8-9.1,7.1-9.1s5.9,2.7,5.9,7.3v16.6h2.5v-16.1c0-4.7,2.8-7.9,7-7.9s6.1,2.7,6.1,7.5v16.4h2.6v-16.6c0-6.1-2.9-9.6-8-9.6s-6.7,2.1-8,5.9c-1-3.8-3.6-5.9-7.4-5.9s-6.8,2.3-7.9,6.3v-5.6h-2.4ZM379.4,95c-3.8,0-6.2-2-6.2-5.2s2.2-4.8,7.3-5.5l7.5-1v2.1c0,5.6-3.4,9.6-8.6,9.6M378.8,97.2c4.6,0,8-2.3,9.3-6.4,0,2.2.2,4.3.4,5.8h2.7c-.5-2.2-.8-5.4-.8-9.3v-6.4c0-7.3-2.8-10.5-9.4-10.5s-9.5,3.2-9.8,8.5h2.7c.3-4.1,2.9-6.4,7.1-6.4s6.9,2.4,6.9,8.4v.4l-6.7.9c-4,.5-6.5,1.2-8.2,2.6-1.6,1.2-2.5,3-2.5,5.2,0,4.3,3.3,7.2,8.3,7.2M359,77.8v-6.8h-2.4v25.5h2.6v-12.7c0-3.4.8-6.8,3.1-9,1.3-1.2,3-1.9,5.2-1.9s.4,0,.7.1v-2.4c-.4-.1-.6-.1-1-.1-4,0-7,3-8.1,7.4M343.9,95c3.9,0,5.9,1.5,5.9,4.5s-2.5,5.5-9,5.5-9.1-1.7-9.1-5.5,1.2-3.8,3.6-4.6c.6.1,1.2.2,1.8.2h6.8ZM340.3,85.4c-4,0-6.6-2.7-6.6-6.5s2.7-6.5,6.6-6.5,6.7,2.7,6.7,6.5-2.7,6.5-6.7,6.5M351.1,69.4c.5,0,.9,0,1.3.1v-2.2c-.4-.1-.8-.1-1.2-.1-3.1,0-5.2,1.8-6,4.5-1.4-.8-3.1-1.2-4.9-1.2-5.5,0-9.1,3.5-9.1,8.5s1,4.9,2.8,6.4c-2.1.8-3.6,2.4-3.6,4.7s1,3.5,3.2,4.3c-2.9.8-4.4,2.9-4.4,5.5,0,4.2,3.4,7.2,11.3,7.2s11.8-2.9,11.8-7.8-2.7-6.6-7.9-6.6h-7.2c-3,0-4.4-1.3-4.4-3.2s1-2.7,2.5-3.2c1.4.8,3.1,1.2,5,1.2,5.5,0,9.1-3.6,9.1-8.5s-1-4.9-2.8-6.4c.6-2,2.2-3.2,4.5-3.2M314.2,94.9c-5.4,0-8.8-4-8.8-11.1s3.4-11.1,8.8-11.1,8.8,4,8.8,11.1-3.4,11.1-8.8,11.1M314.2,97.2c6.9,0,11.4-5,11.4-13.4s-4.5-13.4-11.4-13.4-11.4,5-11.4,13.4,4.5,13.4,11.4,13.4M292.2,77.8v-6.8h-2.4v25.5h2.5v-12.7c0-3.4.8-6.8,3.1-9,1.3-1.2,3-1.9,5.2-1.9s.4,0,.7.1v-2.4c-.4-.1-.6-.1-1-.1-4,0-7,3-8.1,7.4M273.7,78.3h-9.3v-15.6h9.3c5.3,0,8.7,2.9,8.7,7.5s-3.4,8.1-8.7,8.1M273.8,60.4h-12.2v36.2h2.8v-15.9h9.4c7.1,0,11.5-4,11.5-10.5s-4.4-9.9-11.5-9.9"/>
    <line class="st1" x1="241.5" y1="24.7" x2="241.5" y2="192"/>
    <path d="M160.9,96.7h10v-13.6c0-2.9,1-4.3,3-4.3s2.8,1.3,2.8,4.2v13.7h10v-15.2c0-6.6-2.7-10-8-10s-6.3,1.7-8.1,5.2v-4.6h-9.6v24.6ZM147.9,81.4h-7.3c0-2.9,1.4-4.5,3.7-4.5s3.6,1.6,3.6,4.5M157.5,84.4c0-8-4.6-12.9-13-12.9s-13.3,5.1-13.3,13.1,5.4,12.7,14,12.7,9.8-2.4,11.9-6.3l-7.1-3.3c-1.1,1.9-2.7,2.8-4.7,2.8s-4.7-1.6-4.7-4.1h16.9v-2.1ZM115.6,90.8c-2.1,0-3.5-2.2-3.5-5.6v-1.4c0-4,1.1-5.9,3.4-5.9s3.6,2.2,3.6,6.4-1.3,6.6-3.5,6.6M102.4,106.3h10v-12.3c2,2.3,4,3.3,6.8,3.3,6.2,0,10.2-5.1,10.2-13s-3.9-12.8-9.8-12.8-6.1,1.5-7.5,4.2v-3.6h-9.6v34.2Z"/>
    <path d="M99.2,72h-9.9c0,8.1-6.6,14.8-14.8,14.8s-14.8-6.6-14.8-14.8h-9.9c0,13.6,11.1,24.6,24.6,24.6s24.6-11.1,24.6-24.6"/>
    <path d="M89.3,192.1h9.9s0,0,0,0c0-13.6-11.1-24.6-24.6-24.6s-24.6,11.1-24.6,24.6,0,0,0,0h9.9s0,0,0,0c0-8.1,6.6-14.8,14.8-14.8s14.8,6.6,14.8,14.8,0,0,0,0"/>
    <path d="M49.9,39.4h4v-8.9h0c.2.5.5,1.1.8,1.8l4.1,7.2h4.5v-14.6h-4v9h0c-.2-.5-.6-1.3-.9-1.9l-3.9-7.1h-4.7v14.6ZM68.5,39.6c1.6,0,2.9-.7,3.4-1.8,0,.6,0,1,.1,1.5h4c-.1-.5-.2-1.5-.2-2.5v-3.7c0-3-1.6-4.3-5.2-4.3s-5.2,1.3-5.4,3.7h4.1c0-.8.5-1.2,1.3-1.2s1.1.4,1.1,1.1v.5l-2.8.4c-1.5.2-2.5.6-3.1,1.1-.6.5-.8,1.2-.8,2.1,0,1.8,1.4,3.1,3.6,3.1M70.2,37.1c-.7,0-1.1-.4-1.1-.9s.5-1,1.5-1.2l1.2-.2v1c0,.8-.7,1.4-1.6,1.4M79.9,39.4h4.6l3.5-10.3h-4.2l-1.3,5.6c-.1.6-.2.9-.2,1.4h0c0-.5,0-.8-.2-1.4l-1.3-5.6h-4.2l3.5,10.3ZM91.6,39.6c1.6,0,2.9-.7,3.4-1.8,0,.6,0,1,.1,1.5h4c-.1-.5-.2-1.5-.2-2.5v-3.7c0-3-1.6-4.3-5.2-4.3s-5.2,1.3-5.4,3.7h4.1c0-.8.5-1.2,1.3-1.2s1.1.4,1.1,1.1v.5l-2.8.4c-1.5.2-2.5.6-3.1,1.1-.6.5-.8,1.2-.8,2.1,0,1.8,1.4,3.1,3.6,3.1M93.3,37.1c-.7,0-1.1-.4-1.1-.9s.5-1,1.5-1.2l1.2-.2v1c0,.8-.7,1.4-1.6,1.4"/>
  </g>
  <rect x="49.9" y="43.3" width="49" height="4"/>
</svg>